<svg width="16" height="17" viewBox="0 0 16 17" fill="none" xmlns="http://www.w3.org/2000/svg">
<path d="M6 8.5H3.06667C2.6933 8.5 2.50661 8.5 2.36401 8.57266C2.23856 8.63658 2.13658 8.73857 2.07266 8.86401C2 9.00661 2 9.1933 2 9.56667V13.4333C2 13.8067 2 13.9934 2.07266 14.136C2.13658 14.2614 2.23856 14.3634 2.36401 14.4273C2.50661 14.5 2.6933 14.5 3.06667 14.5H6M6 14.5H10M6 14.5L6 6.23333C6 5.85997 6 5.67328 6.07266 5.53067C6.13658 5.40523 6.23857 5.30324 6.36401 5.23933C6.50661 5.16667 6.6933 5.16667 7.06667 5.16667H8.93333C9.3067 5.16667 9.49339 5.16667 9.63599 5.23933C9.76143 5.30324 9.86342 5.40523 9.92734 5.53067C10 5.67328 10 5.85997 10 6.23333V14.5M10 14.5H12.9333C13.3067 14.5 13.4934 14.5 13.636 14.4273C13.7614 14.3634 13.8634 14.2614 13.9273 14.136C14 13.9934 14 13.8067 14 13.4333V3.56667C14 3.1933 14 3.00661 13.9273 2.86401C13.8634 2.73856 13.7614 2.63658 13.636 2.57266C13.4934 2.5 13.3067 2.5 12.9333 2.5H11.0667C10.6933 2.5 10.5066 2.5 10.364 2.57266C10.2386 2.63658 10.1366 2.73857 10.0727 2.86401C10 3.00661 10 3.1933 10 3.56667V5.83333" stroke="#64748B" stroke-linecap="round" stroke-linejoin="round"/>
</svg>
