<svg width="15" height="19" viewBox="0 0 15 19" fill="none" xmlns="http://www.w3.org/2000/svg">
<path d="M0.956543 2.65609L10.8751 18.1272H1.77835C1.32424 18.1272 0.956543 17.7589 0.956543 17.3054V2.65609Z" stroke="#0C111D" stroke-width="0.911111" stroke-miterlimit="10"/>
<path d="M3.34326 15.99V10.2844L6.98717 15.99H3.34326Z" stroke="#0C111D" stroke-width="0.911111" stroke-miterlimit="10"/>
<path d="M1.03638 7.22223H2.14749" stroke="#0C111D" stroke-width="0.911111" stroke-miterlimit="10"/>
<path d="M1.03638 9.44445H2.14749" stroke="#0C111D" stroke-width="0.911111" stroke-miterlimit="10"/>
<path d="M1.03638 11.1111H2.14749" stroke="#0C111D" stroke-width="0.911111" stroke-miterlimit="10"/>
<path d="M1.03638 12.7778H2.14749" stroke="#0C111D" stroke-width="0.911111" stroke-miterlimit="10"/>
<path d="M1.03638 14.4445H2.14749" stroke="#0C111D" stroke-width="0.911111" stroke-miterlimit="10"/>
<path d="M1.03638 16.1111H2.14749" stroke="#0C111D" stroke-width="0.911111" stroke-miterlimit="10"/>
<path d="M13.8936 16.8722L3.97502 1.40111L13.0717 1.40111C13.5259 1.40111 13.8936 1.76939 13.8936 2.22292L13.8936 16.8722Z" stroke="#0C111D" stroke-width="0.911111" stroke-miterlimit="10"/>
<path d="M11.5071 3.53827L11.5071 9.24395L7.86317 3.53827L11.5071 3.53827Z" stroke="#0C111D" stroke-width="0.911111" stroke-miterlimit="10"/>
<path d="M13.8137 12.3061L12.7026 12.3061" stroke="#0C111D" stroke-width="0.911111" stroke-miterlimit="10"/>
<path d="M13.8137 10.0839L12.7026 10.0839" stroke="#0C111D" stroke-width="0.911111" stroke-miterlimit="10"/>
<path d="M13.8137 8.4172L12.7026 8.4172" stroke="#0C111D" stroke-width="0.911111" stroke-miterlimit="10"/>
<path d="M13.8137 6.75053L12.7026 6.75053" stroke="#0C111D" stroke-width="0.911111" stroke-miterlimit="10"/>
<path d="M13.8137 5.08386L12.7026 5.08386" stroke="#0C111D" stroke-width="0.911111" stroke-miterlimit="10"/>
<path d="M13.8137 3.4172L12.7026 3.4172" stroke="#0C111D" stroke-width="0.911111" stroke-miterlimit="10"/>
</svg>
