<svg width="19" height="18" viewBox="0 0 19 18" fill="none" xmlns="http://www.w3.org/2000/svg">
<path d="M2.92623 11.631C3.3218 11.8084 3.7629 11.9693 4.24247 12.1111C5.28044 12.4194 6.49908 12.639 7.82564 12.7417C8.38264 12.7854 8.95841 12.8079 9.54778 12.8079C10.1372 12.8079 10.7209 12.7849 11.2817 12.7408C12.6138 12.6366 13.8372 12.4147 14.8775 12.104C16.9774 11.4771 18.3316 10.4889 18.3316 9.37675C18.3316 8.26464 16.9671 7.26842 14.8536 6.64198C13.8156 6.33368 12.596 6.11407 11.2695 6.01084C10.7125 5.96767 10.1372 5.94514 9.54778 5.94514C8.95465 5.94514 8.37466 5.96814 7.81438 6.01178C6.48219 6.11595 5.25886 6.3379 4.21854 6.64902C2.11912 7.27593 0.764404 8.26417 0.764404 9.37675C0.764404 9.70569 0.882655 10.0234 1.10414 10.3246" stroke="#0C111D" stroke-width="0.901824" stroke-miterlimit="10"/>
<path d="M11.1322 2.93914C10.6146 3.28169 10.0759 3.70683 9.53347 4.20423C8.95911 4.72979 8.37959 5.337 7.81462 6.01177C7.4533 6.44301 7.09808 6.90194 6.75365 7.38573C6.27736 8.05441 5.85223 8.72684 5.48246 9.38848C4.95315 10.3335 4.53646 11.2556 4.24271 12.1111C3.52663 14.1959 3.54259 15.8829 4.45199 16.5304C5.51061 17.2845 7.50585 16.4338 9.56304 14.5488C10.1374 14.0228 10.7169 13.416 11.2819 12.7408C11.6432 12.3095 11.9984 11.8506 12.3429 11.3673C12.8191 10.6986 13.2443 10.0262 13.6141 9.36455C14.1434 8.41948 14.5601 7.49741 14.8538 6.64197C15.5699 4.55711 15.5539 2.87016 14.6445 2.2226C14.2583 1.94762 13.7478 1.88615 13.1547 2.0105" stroke="#0C111D" stroke-width="0.901824" stroke-miterlimit="10"/>
<path d="M15.2181 13.2847C15.1341 12.9097 15.0201 12.5146 14.8774 12.104C14.5785 11.2439 14.1534 10.3153 13.6137 9.36456C13.2402 8.70527 12.8113 8.03565 12.3313 7.36979C11.9864 6.89162 11.6307 6.43739 11.2694 6.01085C10.6983 5.3356 10.1131 4.72933 9.53316 4.20424C7.46518 2.33147 5.46478 1.49199 4.41038 2.25217C3.50849 2.90255 3.4991 4.57917 4.21846 6.64902C4.51737 7.50915 4.94251 8.43779 5.48214 9.38849C5.85566 10.0478 6.28455 10.7179 6.7646 11.3837C7.10949 11.8619 7.46471 12.3152 7.82556 12.7417C8.39664 13.4174 8.98226 14.0237 9.56272 14.5488C11.6307 16.422 13.6311 17.2615 14.6855 16.5009C14.9872 16.2836 15.189 15.9509 15.2969 15.5277" stroke="#0C111D" stroke-width="0.901824" stroke-miterlimit="10"/>
<path d="M9.5478 10.7859C10.3263 10.7859 10.9574 10.1548 10.9574 9.37628C10.9574 8.59777 10.3263 7.96666 9.5478 7.96666C8.76929 7.96666 8.13818 8.59777 8.13818 9.37628C8.13818 10.1548 8.76929 10.7859 9.5478 10.7859Z" stroke="#0C111D" stroke-width="0.901824" stroke-miterlimit="10"/>
<path d="M12.0727 3.44734C12.6945 3.44734 13.1985 2.94333 13.1985 2.32161C13.1985 1.69989 12.6945 1.19588 12.0727 1.19588C11.451 1.19588 10.947 1.69989 10.947 2.32161C10.947 2.94333 11.451 3.44734 12.0727 3.44734Z" stroke="#0C111D" stroke-width="0.901824" stroke-miterlimit="10"/>
<path d="M15.1706 15.5347C15.7924 15.5347 16.2964 15.0307 16.2964 14.409C16.2964 13.7872 15.7924 13.2832 15.1706 13.2832C14.5489 13.2832 14.0449 13.7872 14.0449 14.409C14.0449 15.0307 14.5489 15.5347 15.1706 15.5347Z" stroke="#0C111D" stroke-width="0.901824" stroke-miterlimit="10"/>
<path d="M1.95873 12.1824C2.58045 12.1824 3.08446 11.6784 3.08446 11.0566C3.08446 10.4349 2.58045 9.93092 1.95873 9.93092C1.33701 9.93092 0.833008 10.4349 0.833008 11.0566C0.833008 11.6784 1.33701 12.1824 1.95873 12.1824Z" stroke="#0C111D" stroke-width="0.901824" stroke-miterlimit="10"/>
</svg>
