<svg xmlns="http://www.w3.org/2000/svg" width="97" height="92" viewBox="0 0 97 92" fill="none">
  <path d="M46.7186 1.99072C47.4608 0.536218 49.5392 0.536217 50.2814 1.99072L63.6256 28.1386C63.9162 28.7081 64.4615 29.1043 65.0929 29.2047L94.0846 33.8156C95.6973 34.072 96.3395 36.0486 95.1856 37.204L74.441 57.9752C73.9892 58.4276 73.7809 59.0686 73.8805 59.7001L78.4542 88.6977C78.7087 90.3107 77.0273 91.5323 75.5718 90.7919L49.4068 77.4813C48.837 77.1915 48.163 77.1915 47.5932 77.4813L21.4282 90.7919C19.9727 91.5323 18.2913 90.3107 18.5458 88.6977L23.1195 59.7001C23.2191 59.0686 23.0108 58.4276 22.559 57.9752L1.81444 37.204C0.660508 36.0486 1.30274 34.0721 2.91543 33.8156L31.9071 29.2047C32.5385 29.1043 33.0838 28.7081 33.3744 28.1386L46.7186 1.99072Z" fill="url(#paint0_linear_5414_319)" stroke="url(#paint1_linear_5414_319)"/>
  <defs>
    <linearGradient id="paint0_linear_5414_319" x1="48.5" y1="-1.5" x2="48.5" y2="92" gradientUnits="userSpaceOnUse">
      <stop stop-color="#FFDE33"/>
      <stop offset="1" stop-color="#F7B736"/>
    </linearGradient>
    <linearGradient id="paint1_linear_5414_319" x1="48.5" y1="-1.5" x2="48.5" y2="102.5" gradientUnits="userSpaceOnUse">
      <stop stop-color="#FFDC29"/>
      <stop offset="1" stop-color="#F7A736"/>
    </linearGradient>
  </defs>
</svg>