<svg width="500" height="374" viewBox="0 0 500 374" fill="none" xmlns="http://www.w3.org/2000/svg">
<g clip-path="url(#clip0_3399_3062)">
<path d="M500 328.145H0V328.395H500V328.145Z" fill="#EBEBEB"/>
<path d="M449.9 344.235H396.83V344.485H449.9V344.235Z" fill="#EBEBEB"/>
<path d="M331.22 341.105H272.56V341.355H331.22V341.105Z" fill="#EBEBEB"/>
<path d="M399.39 339.655H380.2V339.905H399.39V339.655Z" fill="#EBEBEB"/>
<path d="M143.66 336.635H100.47V336.885H143.66V336.635Z" fill="#EBEBEB"/>
<path d="M94.9 336.635H79.46V336.885H94.9V336.635Z" fill="#EBEBEB"/>
<path d="M185.67 340.855H131.47V341.105H185.67V340.855Z" fill="#EBEBEB"/>
<path d="M237.01 283.545H43.91C40.76 283.545 38.2 280.985 38.2 277.835V6.40501C38.2 3.25501 40.76 0.695007 43.91 0.695007H237.01C240.16 0.695007 242.72 3.25501 242.72 6.40501V277.835C242.72 280.985 240.16 283.545 237.01 283.545ZM43.91 0.945007C40.9 0.945007 38.45 3.39501 38.45 6.40501V277.835C38.45 280.845 40.9 283.295 43.91 283.295H237.01C240.02 283.295 242.47 280.845 242.47 277.835V6.40501C242.47 3.39501 240.02 0.945007 237.01 0.945007H43.91Z" fill="#EBEBEB"/>
<path d="M453.31 283.545H260.21C257.06 283.545 254.5 280.985 254.5 277.835V6.40501C254.5 3.25501 257.06 0.695007 260.21 0.695007H453.31C456.46 0.695007 459.02 3.25501 459.02 6.40501V277.835C459.02 280.985 456.46 283.545 453.31 283.545ZM260.21 0.945007C257.2 0.945007 254.75 3.39501 254.75 6.40501V277.835C254.75 280.845 257.2 283.295 260.21 283.295H453.31C456.32 283.295 458.77 280.845 458.77 277.835V6.40501C458.77 3.39501 456.32 0.945007 453.31 0.945007H260.21Z" fill="#EBEBEB"/>
<path d="M371.65 149.915H415.48V21.985H371.65V149.915Z" fill="#F0F0F0"/>
<path d="M362.23 149.915H412.65V21.985H362.23V149.915Z" fill="#F5F5F5"/>
<path d="M366.46 27.005V144.885H408.43V27.005H366.46Z" fill="white"/>
<path d="M376.63 40.025V131.855H398.25V40.025H376.63Z" fill="#F5F5F5"/>
<path d="M308.64 177.465H352.47V49.535H308.64V177.465Z" fill="#F0F0F0"/>
<path d="M299.23 177.465H349.65V49.535H299.23V177.465Z" fill="#F5F5F5"/>
<path d="M303.46 54.565V172.445H345.43V54.565H303.46Z" fill="white"/>
<path d="M313.63 76.225V150.775C313.63 155.547 317.498 159.415 322.27 159.415H326.61C331.382 159.415 335.25 155.547 335.25 150.775V76.225C335.25 71.4533 331.382 67.585 326.61 67.585H322.27C317.498 67.585 313.63 71.4533 313.63 76.225Z" fill="#F5F5F5"/>
<path d="M268.82 328.145H277.33V231.175H268.82V328.145Z" fill="#E6E6E6"/>
<path d="M266.14 328.145H272.05V231.175H266.14V328.145Z" fill="#F0F0F0"/>
<path d="M365.51 231.165H264.31V240.735H365.51V231.165Z" fill="#F0F0F0"/>
<path d="M369.32 328.145H377.83V240.745H369.32V328.145Z" fill="#E6E6E6"/>
<path d="M366.63 328.145H372.54V240.745H366.63V328.145Z" fill="#F0F0F0"/>
<path d="M423.15 328.145H431.66V240.745H423.15V328.145Z" fill="#E6E6E6"/>
<path d="M420.47 328.145H426.38V240.745H420.47V328.145Z" fill="#F0F0F0"/>
<path d="M322.66 328.145H331.17V240.745H322.66V328.145Z" fill="#E6E6E6"/>
<path d="M319.97 328.145H325.88V240.745H319.97V328.145Z" fill="#F0F0F0"/>
<path d="M365.52 240.745H431.67V231.175H365.52V240.745Z" fill="#E6E6E6"/>
<path d="M361.25 230.965H404.68L410.05 171.965H366.62L361.25 230.965Z" fill="#E6E6E6"/>
<path d="M359 230.965H402.43L407.8 171.965H364.37L359 230.965Z" fill="#F0F0F0"/>
<path d="M396.49 224.425L400.67 178.495H370.31L366.13 224.425H396.49Z" fill="white"/>
<path d="M205.87 31.405H134.07V328.135H205.87V31.405Z" fill="#EBEBEB"/>
<path d="M199 322.135L199 37.405L140.94 37.405V322.135H199Z" fill="#FAFAFA"/>
<path d="M131.02 31.405H59.22V328.135H131.02V31.405Z" fill="#EBEBEB"/>
<path d="M131.02 326.975H134.07L134.07 32.575H131.02L131.02 326.975Z" fill="#E0E0E0"/>
<path d="M124.15 322.135L124.15 37.405L66.09 37.405L66.09 322.135H124.15Z" fill="#FAFAFA"/>
<path d="M214.02 26.525H51.07C50.4625 26.525 49.97 27.0175 49.97 27.625V28.095C49.97 28.7025 50.4625 29.195 51.07 29.195H214.02C214.628 29.195 215.12 28.7025 215.12 28.095V27.625C215.12 27.0175 214.628 26.525 214.02 26.525Z" fill="#E0E0E0"/>
<path d="M199 43.085V37.415L140.94 37.415V43.085H199Z" fill="#E0E0E0"/>
<path d="M199 46.965V37.405L140.94 37.405V46.965H199Z" fill="#E0E0E0"/>
<path d="M124.15 58.295V37.405L66.09 37.405V58.295H124.15Z" fill="#E0E0E0"/>
<g opacity="0.8">
<path d="M201.82 20.295H190.74V324.485H201.82V20.295Z" fill="#F5F5F5"/>
<path d="M198.9 20.295H193.67V324.485H198.9V20.295Z" fill="#F0F0F0"/>
<path d="M207.77 20.295H196.69V324.485H207.77V20.295Z" fill="#F5F5F5"/>
<path d="M204.84 20.295H199.61V324.485H204.84V20.295Z" fill="#F0F0F0"/>
<path d="M213.31 20.295H202.23V324.485H213.31V20.295Z" fill="#F5F5F5"/>
</g>
<g opacity="0.8">
<path d="M75.23 20.295H51.95V324.485H75.23V20.295Z" fill="#F5F5F5"/>
<path d="M69.09 20.295H58.1V324.485H69.09V20.295Z" fill="#F0F0F0"/>
<path d="M87.72 20.295H64.44V324.485H87.72V20.295Z" fill="#F5F5F5"/>
<path d="M81.58 20.295H70.59V324.485H81.58V20.295Z" fill="#F0F0F0"/>
<path d="M99.37 20.295H76.09V324.485H99.37V20.295Z" fill="#F5F5F5"/>
</g>
<path d="M250 373.305C357.082 373.305 443.89 368.237 443.89 361.985C443.89 355.733 357.082 350.665 250 350.665C142.917 350.665 56.11 355.733 56.11 361.985C56.11 368.237 142.917 373.305 250 373.305Z" fill="#F5F5F5"/>
<path d="M79.8176 116.382L78.8207 116.461L80.2801 134.963L81.277 134.885L79.8176 116.382Z" fill="#FF8D41"/>
<path d="M81.8339 141.887L80.837 141.966L81.3106 147.957L82.3075 147.879L81.8339 141.887Z" fill="#FF8D41"/>
<path d="M119.11 82.795H158.55H197.98H237.41H276.84H316.27L317.98 104.505L319.7 126.205L321.41 147.905L323.13 169.615L324.84 191.315L326.56 213.025H287.13H247.69H208.26H168.83H129.4H89.97L88.26 191.315L86.54 169.615L84.83 147.905L83.11 126.205L81.4 104.505L79.68 82.795H119.11Z" fill="#FF8D41"/>
<path d="M122.02 79.795H161.45H200.88H240.31H279.74H319.17L320.89 101.505L322.6 123.205L324.32 144.905L326.03 166.615L327.75 188.315L329.46 210.025H290.03H250.6H211.17H171.74H132.3H92.87L91.16 188.315L89.44 166.615L87.73 144.905L86.02 123.205L84.3 101.505L82.59 79.795H122.02Z" fill="white"/>
<path d="M281.46 101.505H320.89L319.17 79.795H279.74L281.46 101.505Z" fill="white"/>
<path d="M242.03 101.505H281.46L279.74 79.795H240.31L242.03 101.505Z" fill="white"/>
<path d="M202.59 101.505H242.03L240.31 79.795H200.88L202.59 101.505Z" fill="white"/>
<path d="M163.16 101.505H202.59L200.88 79.795H161.45L163.16 101.505Z" fill="white"/>
<path d="M123.73 101.505H163.16L161.45 79.795H122.02L123.73 101.505Z" fill="white"/>
<path d="M84.3 101.505H123.73L122.02 79.795H82.59L84.3 101.505Z" fill="#F5F5F5"/>
<path d="M283.17 123.205H322.6L320.89 101.505H281.46L283.17 123.205Z" fill="#FF8D41"/>
<path opacity="0.3" d="M243.74 123.205H283.17L281.46 101.505H242.03L243.74 123.205Z" fill="#FF8D41"/>
<path opacity="0.6" d="M204.31 123.205H243.74L242.03 101.505H202.59L204.31 123.205Z" fill="#FF8D41"/>
<path opacity="0.6" d="M164.88 123.205H204.31L202.59 101.505H163.16L164.88 123.205Z" fill="#FF8D41"/>
<path d="M125.45 123.205H164.88L163.16 101.505H123.73L125.45 123.205Z" fill="#FF8D41"/>
<path d="M86.02 123.205H125.45L123.73 101.505H84.3L86.02 123.205Z" fill="#F5F5F5"/>
<path d="M324.59 145.155H284.66L284.64 144.925L282.9 122.955H322.83L322.85 123.185L324.59 145.155ZM285.12 144.655H324.05L322.37 123.455H283.44L285.12 144.655Z" fill="#E0E0E0"/>
<path opacity="0.1" d="M245.45 144.905H284.89L283.17 123.205H243.74L245.45 144.905Z" fill="#FF8D41"/>
<path opacity="0.6" d="M206.02 144.905H245.45L243.74 123.205H204.31L206.02 144.905Z" fill="#FF8D41"/>
<path opacity="0.6" d="M166.59 144.905H206.02L204.31 123.205H164.88L166.59 144.905Z" fill="#FF8D41"/>
<path opacity="0.6" d="M127.16 144.905H166.59L164.88 123.205H125.45L127.16 144.905Z" fill="#FF8D41"/>
<path d="M87.73 144.905H127.16L125.45 123.205H86.02L87.73 144.905Z" fill="#F5F5F5"/>
<path d="M326.3 166.865H286.37L286.35 166.635L284.61 144.665H324.54L324.56 144.895L326.3 166.865ZM286.83 166.365H325.76L324.09 145.165H285.16L286.84 166.365H286.83Z" fill="#E0E0E0"/>
<path d="M247.17 166.615H286.6L284.89 144.905H245.45L247.17 166.615Z" fill="white"/>
<path opacity="0.1" d="M207.74 166.615H247.17L245.45 144.905H206.02L207.74 166.615Z" fill="#FF8D41"/>
<path opacity="0.8" d="M168.31 166.615H207.74L206.02 144.905H166.59L168.31 166.615Z" fill="#FF8D41"/>
<path opacity="0.8" d="M128.88 166.615H168.31L166.59 144.905H127.16L128.88 166.615Z" fill="#FF8D41"/>
<path d="M89.44 166.615H128.88L127.16 144.905H87.73L89.44 166.615Z" fill="#F5F5F5"/>
<path d="M328.02 188.565H288.09L288.07 188.335L286.33 166.365H326.26L326.28 166.595L328.02 188.565ZM288.55 188.065H327.48L325.8 166.865H286.87L288.54 188.065H288.55Z" fill="#E0E0E0"/>
<path d="M248.88 188.315H288.31L286.6 166.615H247.17L248.88 188.315Z" fill="white"/>
<path d="M209.45 188.315H248.88L247.17 166.615H207.74L209.45 188.315Z" fill="white"/>
<path opacity="0.1" d="M170.02 188.315H209.45L207.74 166.615H168.31L170.02 188.315Z" fill="#FF8D41"/>
<path d="M130.59 188.315H170.02L168.31 166.615H128.88L130.59 188.315Z" fill="#FF8D41"/>
<path d="M91.16 188.315H130.59L128.88 166.615H89.44L91.16 188.315Z" fill="#F5F5F5"/>
<path d="M329.73 210.275H289.8L289.78 210.045L288.04 188.075H327.97L327.99 188.305L329.73 210.275ZM290.26 209.775H329.19L327.51 188.575H288.58L290.26 209.775Z" fill="#E0E0E0"/>
<path d="M250.6 210.025H290.03L288.31 188.315H248.88L250.6 210.025Z" fill="white"/>
<path d="M211.17 210.025H250.6L248.88 188.315H209.45L211.17 210.025Z" fill="white"/>
<path d="M171.74 210.025H211.17L209.45 188.315H170.02L171.74 210.025Z" fill="white"/>
<path opacity="0.1" d="M132.3 210.025H171.74L170.02 188.315H130.59L132.3 210.025Z" fill="#FF8D41"/>
<path d="M92.87 210.025H132.3L130.59 188.315H91.16L92.87 210.025Z" fill="#F5F5F5"/>
<path d="M321.16 101.755H281.23L281.21 101.525L279.47 79.555H319.4L319.42 79.785L321.16 101.755ZM281.69 101.255H320.62L318.95 80.055H280.02L281.7 101.255H281.69Z" fill="#E0E0E0"/>
<path d="M281.73 101.755H241.8L241.78 101.525L240.04 79.555H279.97L279.99 79.785L281.73 101.755ZM242.26 101.255H281.19L279.51 80.055H240.58L242.25 101.255H242.26Z" fill="#E0E0E0"/>
<path d="M242.3 101.755H202.37L202.35 101.525L200.61 79.555H240.54L240.56 79.785L242.3 101.755ZM202.83 101.255H241.76L240.09 80.055H201.16L202.84 101.255H202.83Z" fill="#E0E0E0"/>
<path d="M202.87 101.755H162.94L162.92 101.525L161.18 79.555H201.11L201.13 79.785L202.87 101.755ZM163.39 101.255H202.32L200.64 80.055H161.71L163.38 101.255H163.39Z" fill="#E0E0E0"/>
<path d="M163.43 101.755H123.5L123.48 101.525L121.74 79.555H161.67L161.69 79.785L163.43 101.755ZM123.96 101.255H162.89L161.22 80.055H122.29L123.97 101.255H123.96Z" fill="#E0E0E0"/>
<path d="M124 101.755H84.07L84.05 101.525L82.31 79.555H122.24L122.26 79.785L124 101.755ZM84.53 101.255H123.46L121.78 80.055H82.85L84.52 101.255H84.53Z" fill="#E0E0E0"/>
<path opacity="0.1" d="M283.17 123.205H322.6L320.89 101.505H281.46L283.17 123.205Z" fill="#FF8D41"/>
<path d="M283.44 123.455H243.51L243.49 123.225L241.75 101.255H281.68L281.7 101.485L283.44 123.455ZM243.97 122.955H282.9L281.23 101.755H242.3L243.98 122.955H243.97Z" fill="#E0E0E0"/>
<path d="M244.01 123.455H204.08L204.06 123.225L202.32 101.255H242.25L242.27 101.485L244.01 123.455ZM204.54 122.955H243.47L241.79 101.755H202.86L204.53 122.955H204.54Z" fill="#E0E0E0"/>
<path d="M204.58 123.455H164.65L164.63 123.225L162.89 101.255H202.82L202.84 101.485L204.58 123.455ZM165.11 122.955H204.04L202.37 101.755H163.44L165.12 122.955H165.11Z" fill="#E0E0E0"/>
<path d="M165.15 123.455H125.22L125.2 123.225L123.46 101.255H163.39L163.41 101.485L165.15 123.455ZM125.68 122.955H164.61L162.93 101.755H124L125.67 122.955H125.68Z" fill="#E0E0E0"/>
<path d="M125.72 123.455H85.79L85.77 123.225L84.03 101.255H123.96L123.98 101.485L125.72 123.455ZM86.25 122.955H125.18L123.51 101.755H84.58L86.26 122.955H86.25Z" fill="#E0E0E0"/>
<path d="M324.59 145.155H284.66L284.64 144.925L282.9 122.955H322.83L322.85 123.185L324.59 145.155ZM285.12 144.655H324.05L322.37 123.455H283.44L285.12 144.655Z" fill="#E0E0E0"/>
<path d="M285.16 145.155H245.23L245.21 144.925L243.47 122.955H283.4L283.42 123.185L285.16 145.155ZM245.69 144.655H284.62L282.94 123.455H244.01L245.69 144.655Z" fill="#E0E0E0"/>
<path d="M245.73 145.155H205.8L205.78 144.925L204.04 122.955H243.97L243.99 123.185L245.73 145.155ZM206.26 144.655H245.19L243.51 123.455H204.58L206.26 144.655Z" fill="#E0E0E0"/>
<path d="M206.29 145.155H166.36L166.34 144.925L164.6 122.955H204.53L204.55 123.185L206.29 145.155ZM166.82 144.655H205.75L204.07 123.455H165.14L166.82 144.655Z" fill="#E0E0E0"/>
<path d="M166.86 145.155H126.93L126.91 144.925L125.17 122.955H165.1L165.12 123.185L166.86 145.155ZM127.39 144.655H166.32L164.64 123.455H125.71L127.39 144.655Z" fill="#E0E0E0"/>
<path d="M127.43 145.155H87.5L87.48 144.925L85.74 122.955H125.67L125.69 123.185L127.43 145.155ZM87.96 144.655H126.89L125.21 123.455H86.28L87.95 144.655H87.96Z" fill="#E0E0E0"/>
<path d="M326.3 166.865H286.37L286.35 166.635L284.61 144.665H324.54L324.56 144.895L326.3 166.865ZM286.83 166.365H325.76L324.09 145.165H285.16L286.84 166.365H286.83Z" fill="#E0E0E0"/>
<path d="M286.87 166.865H246.94L246.92 166.635L245.18 144.665H285.11L285.13 144.895L286.87 166.865ZM247.4 166.365H286.33L284.65 145.165H245.72L247.39 166.365H247.4Z" fill="#E0E0E0"/>
<path d="M247.44 166.865H207.51L207.49 166.635L205.75 144.665H245.68L245.7 144.895L247.44 166.865ZM207.97 166.365H246.9L245.23 145.165H206.3L207.98 166.365H207.97Z" fill="#E0E0E0"/>
<path d="M208.01 166.865H168.08L168.06 166.635L166.32 144.665H206.25L206.27 144.895L208.01 166.865ZM168.54 166.365H207.47L205.79 145.165H166.86L168.53 166.365H168.54Z" fill="#E0E0E0"/>
<path d="M168.58 166.865H128.65L128.63 166.635L126.89 144.665H166.82L166.84 144.895L168.58 166.865ZM129.11 166.365H168.04L166.37 145.165H127.44L129.12 166.365H129.11Z" fill="#E0E0E0"/>
<path d="M129.15 166.865H89.22L89.2 166.635L87.46 144.665H127.39L127.41 144.895L129.15 166.865ZM89.68 166.365H128.61L126.93 145.165H88L89.68 166.365Z" fill="#E0E0E0"/>
<path d="M328.02 188.565H288.09L288.07 188.335L286.33 166.365H326.26L326.28 166.595L328.02 188.565ZM288.55 188.065H327.48L325.8 166.865H286.87L288.54 188.065H288.55Z" fill="#E0E0E0"/>
<path d="M288.59 188.565H248.66L248.64 188.335L246.9 166.365H286.83L286.85 166.595L288.59 188.565ZM249.12 188.065H288.05L286.38 166.865H247.45L249.13 188.065H249.12Z" fill="#E0E0E0"/>
<path d="M249.15 188.565H209.22L209.2 188.335L207.46 166.365H247.39L247.41 166.595L249.15 188.565ZM209.68 188.065H248.61L246.93 166.865H208L209.67 188.065H209.68Z" fill="#E0E0E0"/>
<path d="M209.72 188.565H169.79L169.77 188.335L168.03 166.365H207.96L207.98 166.595L209.72 188.565ZM170.25 188.065H209.18L207.51 166.865H168.58L170.26 188.065H170.25Z" fill="#E0E0E0"/>
<path d="M170.29 188.565H130.36L130.34 188.335L128.6 166.365H168.53L168.55 166.595L170.29 188.565ZM130.82 188.065H169.75L168.07 166.865H129.14L130.81 188.065H130.82Z" fill="#E0E0E0"/>
<path d="M130.86 188.565H90.93L90.91 188.335L89.17 166.365H129.1L129.12 166.595L130.86 188.565ZM91.39 188.065H130.32L128.65 166.865H89.72L91.4 188.065H91.39Z" fill="#E0E0E0"/>
<path d="M329.73 210.275H289.8L289.78 210.045L288.04 188.075H327.97L327.99 188.305L329.73 210.275ZM290.26 209.775H329.19L327.51 188.575H288.58L290.26 209.775Z" fill="#E0E0E0"/>
<path d="M290.3 210.275H250.37L250.35 210.045L248.61 188.075H288.54L288.56 188.305L290.3 210.275ZM250.83 209.775H289.76L288.08 188.575H249.15L250.82 209.775H250.83Z" fill="#E0E0E0"/>
<path d="M250.87 210.275H210.94L210.92 210.045L209.18 188.075H249.11L249.13 188.305L250.87 210.275ZM211.4 209.775H250.33L248.66 188.575H209.73L211.41 209.775H211.4Z" fill="#E0E0E0"/>
<path d="M211.44 210.275H171.51L171.49 210.045L169.75 188.075H209.68L209.7 188.305L211.44 210.275ZM171.97 209.775H210.9L209.22 188.575H170.29L171.96 209.775H171.97Z" fill="#E0E0E0"/>
<path d="M172.01 210.275H132.08L132.06 210.045L130.32 188.075H170.25L170.27 188.305L172.01 210.275ZM132.54 209.775H171.47L169.8 188.575H130.87L132.55 209.775H132.54Z" fill="#E0E0E0"/>
<path d="M132.58 210.275H92.65L92.63 210.045L90.89 188.075H130.82L130.84 188.305L132.58 210.275ZM93.1 209.775H132.03L130.35 188.575H91.42L93.09 209.775H93.1Z" fill="#E0E0E0"/>
<path d="M388.85 100.625C391.21 105.325 393.13 109.965 394.95 114.795C396.7 119.635 398.31 124.545 399.47 129.755L399.88 131.715L400.23 133.725L400.4 134.755C400.46 135.335 400.55 135.965 400.53 136.515C400.53 137.075 400.51 137.635 400.44 138.135L400.34 138.905L400.19 139.615C399.75 141.485 399.08 143.005 398.36 144.385C397.64 145.765 396.81 146.975 395.96 148.115C394.27 150.395 392.41 152.355 390.47 154.165C388.51 155.985 386.53 157.605 384.27 159.145C382.79 160.155 380.76 159.775 379.75 158.295C378.96 157.145 379.02 155.665 379.77 154.585L379.88 154.435C382.59 150.595 385.41 146.555 387.31 142.685C388.23 140.785 388.96 138.795 388.97 137.595V137.385L388.96 137.225C388.96 137.105 388.93 137.045 388.92 136.985C388.92 136.905 388.86 136.925 388.86 136.895L388.65 136.095L388.22 134.465L387.72 132.815C387.4 131.725 387.01 130.605 386.66 129.495C386.26 128.385 385.89 127.275 385.46 126.165C384.64 123.945 383.76 121.715 382.85 119.495C381.05 115.075 379.06 110.565 377.15 106.295L377.1 106.185C375.63 102.905 377.1 99.065 380.37 97.595C383.56 96.165 387.29 97.525 388.84 100.615L388.85 100.625Z" fill="#CE7A63"/>
<path d="M377.19 155.155L374.59 159.375C373.93 160.455 374.36 161.865 375.51 162.395L379.68 164.285C380.69 164.745 381.88 164.335 382.41 163.355L383.54 161.225L386.46 156.425L383.5 151.785C379.82 151.735 377.21 155.145 377.21 155.145L377.19 155.155Z" fill="#CE7A63"/>
<path d="M405.88 350.885C405.12 351.055 404.35 351.095 403.99 350.785C403.84 350.655 403.68 350.405 403.82 349.945C403.89 349.705 404.05 349.525 404.28 349.415C405.31 348.925 407.67 349.885 407.77 349.925C407.84 349.955 407.88 350.015 407.88 350.085C407.88 350.155 407.84 350.225 407.78 350.255C407.42 350.425 406.65 350.715 405.89 350.885H405.88ZM404.64 349.675C404.56 349.695 404.49 349.715 404.43 349.745C404.29 349.815 404.2 349.915 404.16 350.055C404.06 350.375 404.18 350.485 404.22 350.515C404.63 350.865 406.15 350.545 407.22 350.115C406.49 349.855 405.32 349.535 404.65 349.675H404.64Z" fill="#FF8D41"/>
<path d="M407.73 350.275C407.73 350.275 407.67 350.275 407.64 350.275C406.78 350.025 404.94 348.715 404.92 347.855C404.92 347.695 404.97 347.415 405.38 347.275C405.65 347.185 405.91 347.205 406.18 347.335C407.2 347.855 407.84 349.955 407.86 350.045C407.88 350.105 407.86 350.175 407.82 350.225C407.79 350.255 407.76 350.265 407.73 350.275ZM405.58 347.585C405.58 347.585 405.53 347.595 405.5 347.605C405.28 347.685 405.28 347.795 405.28 347.835C405.29 348.345 406.51 349.365 407.4 349.785C407.18 349.175 406.67 347.975 406.02 347.645C405.87 347.565 405.73 347.545 405.58 347.575V347.585Z" fill="#FF8D41"/>
<path d="M351.14 354.605C350.16 354.605 349.22 354.475 348.91 354.035C348.8 353.885 348.71 353.625 348.93 353.245C349.05 353.035 349.24 352.895 349.5 352.825C350.77 352.485 353.42 353.995 353.53 354.055C353.59 354.095 353.63 354.165 353.62 354.245C353.61 354.325 353.55 354.375 353.48 354.395C353 354.495 352.06 354.605 351.15 354.605H351.14ZM349.94 353.135C349.81 353.135 349.7 353.145 349.59 353.175C349.42 353.225 349.31 353.305 349.24 353.425C349.11 353.645 349.16 353.755 349.21 353.825C349.56 354.315 351.49 354.325 352.9 354.125C352.2 353.765 350.84 353.135 349.95 353.135H349.94Z" fill="#FF8D41"/>
<path d="M353.44 354.395C353.44 354.395 353.39 354.395 353.37 354.375C352.45 353.965 350.63 352.315 350.77 351.455C350.8 351.255 350.95 351.005 351.44 350.955C351.81 350.915 352.14 351.025 352.44 351.265C353.41 352.055 353.61 354.105 353.62 354.195C353.62 354.255 353.6 354.325 353.55 354.355C353.52 354.375 353.48 354.385 353.44 354.385V354.395ZM351.59 351.315C351.59 351.315 351.52 351.315 351.48 351.315C351.16 351.345 351.14 351.475 351.13 351.515C351.05 352.035 352.28 353.325 353.22 353.885C353.12 353.285 352.85 352.065 352.22 351.545C352.03 351.385 351.82 351.315 351.6 351.315H351.59Z" fill="#FF8D41"/>
<path d="M361.8 354.215H354.2L353.44 336.615H361.04L361.8 354.215Z" fill="#CE7A63"/>
<path d="M416.2 348.255L408.78 349.865L401.32 333.465L408.75 331.855L416.2 348.255Z" fill="#CE7A63"/>
<path d="M408.06 349.115L416.41 347.305C416.71 347.235 417.02 347.395 417.15 347.675L420.05 353.965C420.35 354.615 419.95 355.385 419.25 355.525C416.33 356.105 414.87 356.245 411.2 357.035C408.94 357.525 403.84 358.765 400.73 359.445C397.68 360.105 396.54 357.125 397.75 356.565C403.2 354.075 405.48 351.875 406.96 349.835C407.23 349.465 407.62 349.215 408.07 349.115H408.06Z" fill="#263238"/>
<path d="M354.25 353.335H362.55C362.86 353.335 363.13 353.555 363.2 353.855L364.7 360.615C364.86 361.315 364.32 361.975 363.61 361.965C360.62 361.915 356.29 361.735 352.52 361.735C348.12 361.735 344.32 361.975 339.16 361.975C336.04 361.975 335.17 358.825 336.48 358.535C342.43 357.235 347.28 357.095 352.42 353.925C352.98 353.585 353.6 353.335 354.25 353.335Z" fill="#263238"/>
<path opacity="0.2" d="M353.44 336.615L353.83 345.695H361.44L361.05 336.615H353.44Z" fill="black"/>
<path opacity="0.2" d="M408.75 331.855L401.32 333.465L405.17 341.915L412.6 340.305L408.75 331.855Z" fill="black"/>
<path d="M356.36 160.855C356.36 160.855 364.99 218.945 369.72 240.715C374.91 264.545 401.33 340.955 401.33 340.955L414.94 338.005C414.94 338.005 395.49 266.475 392.53 242.875C389.32 217.265 382.6 160.855 382.6 160.855H356.36Z" fill="#FF8D41"/>
<path d="M398.07 336.405C398.01 336.415 400.61 341.325 400.61 341.325L415.92 338.015L414.63 333.415L398.07 336.415V336.405Z" fill="#263238"/>
<path opacity="0.3" d="M361.81 181.555C371.79 183.515 370.73 220.715 369.53 239.845C366.65 226.325 362.44 200.295 359.57 181.825C360.23 181.495 360.98 181.395 361.82 181.555H361.81Z" fill="black"/>
<path d="M341.94 160.855C341.94 160.855 340.89 217.695 341.72 240.875C342.58 264.985 351 343.935 351 343.935H363.88C363.88 343.935 364.35 266.395 364.93 242.715C365.55 216.895 368.67 160.855 368.67 160.855H341.94Z" fill="#FF8D41"/>
<path d="M348.52 338.805C348.46 338.805 349.25 344.155 349.25 344.155H364.91L365.33 339.385L348.52 338.815V338.805Z" fill="#263238"/>
<path d="M277.52 72.515C291.07 69.095 306.03 77.015 310.93 90.195C315.83 103.375 308.81 116.835 295.25 120.255C281.7 123.675 266.74 115.765 261.84 102.585C256.94 89.405 263.97 75.945 277.52 72.525V72.515ZM293.85 116.475C305.26 113.595 311.17 102.265 307.05 91.175C302.93 80.075 290.34 73.415 278.93 76.295C267.52 79.175 261.61 90.505 265.73 101.605C269.85 112.705 282.44 119.365 293.85 116.485V116.475Z" fill="#263238"/>
<path opacity="0.2" d="M293.22 114.795C303.67 112.155 309.09 101.775 305.31 91.605C301.53 81.435 290 75.335 279.54 77.965C269.08 80.605 263.67 90.985 267.44 101.155C271.22 111.325 282.75 117.425 293.21 114.785L293.22 114.795Z" fill="#FF8D41"/>
<path d="M292.65 119.955C293.09 121.935 293.67 123.875 294.28 125.805C294.9 127.735 295.58 129.655 296.3 131.555C297.02 133.455 297.79 135.355 298.59 137.235C299.56 139.075 299.57 141.165 302.65 142.455C303.51 142.815 304.78 142.625 305.49 142.025C305.63 141.905 305.75 141.765 305.82 141.635C307.24 139.185 305.58 137.515 304.88 135.605C304.01 133.735 303.11 131.885 302.17 130.035C301.22 128.185 300.23 126.355 299.19 124.535C298.14 122.715 297.05 120.905 295.82 119.135C295.48 118.645 294.52 118.475 293.67 118.765C292.95 119.015 292.55 119.505 292.65 119.945V119.955Z" fill="#263238"/>
<path d="M347.56 72.515C347.71 73.105 347.52 73.675 347.13 73.765C346.74 73.865 346.3 73.465 346.15 72.865C346 72.275 346.19 71.705 346.58 71.615C346.97 71.515 347.41 71.915 347.56 72.515Z" fill="#263238"/>
<path d="M347.58 73.665C347.58 73.665 347.1 77.435 346.03 79.465C347.33 80.175 349 79.275 349 79.275L347.57 73.655L347.58 73.665Z" fill="#BA4D3C"/>
<path d="M348.9 68.665C348.98 68.625 349.04 68.565 349.08 68.475C349.15 68.285 349.06 68.085 348.88 68.005C347.03 67.275 345.66 68.225 345.6 68.265C345.44 68.385 345.4 68.605 345.52 68.765C345.64 68.925 345.86 68.965 346.02 68.855C346.02 68.855 347.14 68.095 348.62 68.675C348.72 68.715 348.82 68.705 348.91 68.665H348.9Z" fill="#263238"/>
<path d="M367.34 75.395C368.06 81.175 368.58 87.395 371.82 92.205C371.82 92.205 371.92 97.865 361.63 98.785C350.31 99.805 354.61 93.755 354.61 93.755C358.75 92.795 358.89 87.265 356.58 83.135L367.34 75.405V75.395Z" fill="#CE7A63"/>
<path d="M373.89 95.735C374.53 93.195 375.23 90.285 373.3 89.525C371.18 88.695 359.88 88.505 356.14 90.615C352.4 92.735 353.86 97.695 353.86 97.695L373.88 95.735H373.89Z" fill="#FF8D41"/>
<path d="M384.97 94.765C392 96.775 397.37 115.415 397.37 115.415L381.05 123.405C378.61 118.325 376.21 112.245 374.93 108.545C371.71 99.245 377.78 92.715 384.97 94.765Z" fill="#263238"/>
<g opacity="0.4">
<path d="M379.517 98.1539L376.769 104.44L377.685 104.84L380.433 98.5544L379.517 98.1539Z" fill="white"/>
<path d="M388.86 97.565L387.74 100.125L388.66 100.525L389.58 98.425C389.35 98.125 389.11 97.835 388.87 97.555L388.86 97.565Z" fill="white"/>
<path d="M383.8 109.121L381.052 115.407L381.968 115.808L384.716 109.522L383.8 109.121Z" fill="white"/>
<path d="M394.62 107.705C394.45 107.295 394.27 106.865 394.08 106.445L392.04 111.115L392.96 111.515L394.62 107.705Z" fill="white"/>
</g>
<path d="M340.53 99.775C338.71 106.765 336.88 123.425 341.93 160.865C359.23 162.625 375.06 163.705 382.59 160.865C382.92 153.415 379.12 123.325 384.97 94.765C384.97 94.765 378 93.365 371.36 93.045C366.16 92.795 358.64 92.625 354.08 93.045C351.23 93.305 348.46 93.795 346.33 94.235C343.49 94.825 341.26 96.975 340.53 99.775Z" fill="#263238"/>
<g opacity="0.4">
<path d="M348.1 94.715L348.97 95.205L349.9 93.575C349.46 93.645 349.04 93.715 348.63 93.795L348.1 94.715Z" fill="white"/>
<path d="M343.245 103.238L339.854 109.201L340.723 109.696L344.114 103.732L343.245 103.238Z" fill="white"/>
<path d="M354.627 100.128L351.236 106.091L352.105 106.585L355.496 100.622L354.627 100.128Z" fill="white"/>
<path d="M365.998 97.0071L362.606 102.97L363.475 103.465L366.867 97.5015L365.998 97.0071Z" fill="white"/>
<path d="M377.348 93.8541L373.957 99.8177L374.826 100.312L378.217 94.3484L377.348 93.8541Z" fill="white"/>
<path d="M346.378 114.624L342.987 120.587L343.856 121.082L347.248 115.119L346.378 114.624Z" fill="white"/>
<path d="M357.758 111.498L354.366 117.461L355.235 117.956L358.627 111.993L357.758 111.498Z" fill="white"/>
<path d="M369.128 108.378L365.737 114.341L366.606 114.835L369.998 108.872L369.128 108.378Z" fill="white"/>
<path d="M380.499 105.243L377.108 111.206L377.978 111.701L381.368 105.737L380.499 105.243Z" fill="white"/>
<path d="M338.9 129.555C338.9 129.625 338.9 129.695 338.91 129.755L338.99 129.605L338.89 129.555H338.9Z" fill="white"/>
<path d="M349.501 125.989L346.11 131.952L346.979 132.446L350.37 126.483L349.501 125.989Z" fill="white"/>
<path d="M360.859 122.847L357.469 128.811L358.338 129.305L361.729 123.342L360.859 122.847Z" fill="white"/>
<path d="M372.218 119.716L368.827 125.68L369.697 126.174L373.087 120.21L372.218 119.716Z" fill="white"/>
<path d="M380.22 122.575L381.09 123.065L381.88 121.675C381.91 120.945 381.94 120.215 381.98 119.475L380.22 122.575Z" fill="white"/>
<path d="M342.12 140.985L341.25 140.495L339.86 142.935C339.91 143.505 339.97 144.085 340.02 144.665L342.11 140.985H342.12Z" fill="white"/>
<path d="M352.632 137.367L349.241 143.331L350.111 143.825L353.501 137.861L352.632 137.367Z" fill="white"/>
<path d="M364 134.236L360.61 140.2L361.479 140.694L364.87 134.73L364 134.236Z" fill="white"/>
<path d="M375.349 131.085L371.958 137.048L372.828 137.543L376.218 131.579L375.349 131.085Z" fill="white"/>
<path d="M344.38 151.865L341.43 157.045C341.48 157.415 341.53 157.785 341.57 158.155L341.85 158.315L345.24 152.355L344.37 151.865H344.38Z" fill="white"/>
<path d="M355.768 148.754L352.378 154.718L353.247 155.212L356.637 149.249L355.768 148.754Z" fill="white"/>
<path d="M367.137 145.633L363.746 151.597L364.615 152.091L368.006 146.128L367.137 145.633Z" fill="white"/>
<path d="M378.499 142.468L375.108 148.432L375.978 148.926L379.368 142.963L378.499 142.468Z" fill="white"/>
<path d="M359.75 160.595L358.88 160.105L357.68 162.215C358.06 162.235 358.42 162.255 358.79 162.285L359.75 160.605V160.595Z" fill="white"/>
<path d="M371.12 157.475L370.25 156.985L367.06 162.595C367.44 162.595 367.83 162.595 368.2 162.605L371.12 157.475Z" fill="white"/>
<path d="M382.44 154.435C382.44 154.435 382.44 154.355 382.44 154.315L381.63 153.855L378.24 159.815L379.11 160.305L382.45 154.435H382.44Z" fill="white"/>
</g>
<path opacity="0.3" d="M340.27 100.855C346.99 94.695 349.37 106.245 348.95 111.435C347.8 125.825 339.46 130.545 338.98 130.985C338.12 114.995 339.13 105.875 340.27 100.845V100.855Z" fill="black"/>
<path d="M350.74 107.525C349.02 109.785 347.24 112.055 345.47 114.305L340.12 121.025L334.76 127.715C333 129.945 331.21 132.165 329.5 134.375L329.11 134.875C328.29 135.935 327.11 136.575 325.88 136.745C323.9 137.015 321.93 137.205 319.98 137.285C318.03 137.395 316.08 137.365 314.15 137.295C312.22 137.205 310.3 137.055 308.39 136.805C306.47 136.545 304.62 136.245 302.64 135.755C300.89 135.325 299.82 133.545 300.25 131.795C300.57 130.485 301.64 129.565 302.89 129.355L303.05 129.325L308.28 128.455C310.03 128.165 311.77 127.855 313.49 127.525C315.21 127.225 316.91 126.835 318.58 126.475C320.26 126.115 321.89 125.655 323.51 125.235L319.89 127.605C323.11 122.615 326.44 117.855 329.89 113.165C331.6 110.815 333.36 108.505 335.13 106.205C336.91 103.905 338.7 101.645 340.57 99.395C342.87 96.635 346.97 96.265 349.73 98.565C352.41 100.795 352.83 104.725 350.75 107.475L350.73 107.505L350.74 107.525Z" fill="#CE7A63"/>
<path d="M299.64 128.695L294.94 130.275C293.74 130.675 293.17 132.045 293.72 133.185L295.71 137.305C296.19 138.305 297.37 138.755 298.4 138.335L300.63 137.425L305.94 135.595L306.63 130.135C303.83 127.745 299.64 128.705 299.64 128.705V128.695Z" fill="#CE7A63"/>
<path d="M354.21 100.695C357.13 110.755 341.77 124.705 341.77 124.705L327.97 111.195C327.97 111.195 332.52 105.525 335.72 101.785C344.68 91.315 351.88 92.665 354.21 100.695Z" fill="#263238"/>
<g opacity="0.4">
<path d="M345.13 94.655C344.75 94.765 344.37 94.905 343.98 95.075L343.53 96.705L344.49 96.975L345.13 94.665V94.655Z" fill="white"/>
<path d="M331.05 114.215L331.6 112.245L330.64 111.975L330.24 113.415L331.05 114.215Z" fill="white"/>
<path d="M340.899 106.157L339.062 112.766L340.026 113.034L341.862 106.424L340.899 106.157Z" fill="white"/>
<path d="M351.184 100.367L349.353 106.978L350.317 107.245L352.148 100.634L351.184 100.367Z" fill="white"/>
<path d="M347.67 116.695L346.71 116.425L345.46 120.915C345.95 120.365 346.46 119.775 346.99 119.145L347.67 116.685V116.695Z" fill="white"/>
</g>
<path d="M367.07 66.225C368.48 73.635 369.67 77.905 366.94 82.585C362.83 89.625 352.97 88.575 349.38 81.735C346.15 75.575 344.39 64.485 350.8 59.765C357.11 55.115 365.67 58.815 367.08 66.225H367.07Z" fill="#CE7A63"/>
<path d="M352.39 72.965C348.61 72.685 348.91 66.905 351.07 64.965C345.62 64.745 338.77 64.515 340.45 58.575C341.67 54.245 353.12 54.135 347.78 51.135C352.89 47.965 355.92 53.245 353.41 54.415C361.39 51.305 370.62 49.085 367.34 56.745C372.84 55.855 376.62 64.985 373.78 68.925C370.95 72.865 375.88 73.585 376.67 71.745C377.06 77.075 371.61 76.915 370.84 75.915C374.12 80.975 367.51 87.195 360.78 83.805C354.06 80.415 352.39 72.975 352.39 72.975V72.965Z" fill="#263238"/>
<path d="M365.16 57.245C369.41 54.825 370.2 51.785 368.45 48.915C375.49 51.335 371.05 57.715 365.16 57.245Z" fill="#263238"/>
<path d="M355.54 71.745C355.95 73.365 355.69 75.105 355.12 76.375C354.25 78.275 352.56 77.805 351.75 76.085C351.02 74.535 350.59 71.675 351.97 70.345C353.33 69.025 355.07 69.895 355.55 71.755L355.54 71.745Z" fill="#CE7A63"/>
<path d="M139.74 263.945C139.83 265.405 138.37 266.455 137.01 265.915C132.13 263.955 124.96 262.025 122.53 259.345C119.53 256.035 115.79 256.095 113.07 254.465C110.35 252.835 108.45 250.555 110.71 248.075C112.97 245.595 112.91 245.585 112.91 241.865C112.91 238.145 115.44 237.605 118.65 237.785C121.87 237.955 120.06 231.215 124.97 235.025C129.88 238.835 128.71 246.115 131.53 249.825C134.35 253.535 137.35 249.335 138.59 254.775C139.48 258.665 139.57 261.245 139.73 263.965L139.74 263.945Z" fill="#FF8D41"/>
<path d="M132.33 300.295C130.75 294.335 133.92 288.295 131.03 283.765C128.14 279.235 129.4 274.335 128.37 270.455C127.34 266.575 125.3 263.685 121.71 266.235C118.12 268.785 118.12 268.695 113.81 268.045C109.5 267.395 108.07 270.625 107.25 274.895C106.43 279.155 99.19 275.605 102.04 282.725C104.89 289.855 113.7 289.585 117.11 293.945C120.51 298.305 116.07 302.695 122.52 303.715C128.97 304.735 135.44 314.975 132.32 300.285L132.33 300.295Z" fill="#FF8D41"/>
<path d="M141.61 278.815C145.61 274.125 152.37 273.285 154.45 268.325C156.53 263.375 161.27 261.605 163.87 258.555C166.47 255.505 167.68 252.175 163.54 250.675C159.4 249.175 159.47 249.125 157.55 245.215C155.63 241.305 152.16 241.975 148.19 243.725C144.22 245.475 143.02 237.505 138.79 243.905C134.56 250.315 139.8 257.395 138.15 262.675C136.5 267.955 130.36 266.805 133.21 272.695C136.05 278.585 131.32 289.725 141.61 278.795V278.815Z" fill="#FF8D41"/>
<path d="M130.73 231.705C129.91 226.885 125.72 224.185 126.29 219.745C126.85 215.305 124.38 212.515 123.85 209.385C123.32 206.255 123.82 203.325 127.17 203.435C130.52 203.545 130.5 203.485 133.32 201.065C136.14 198.645 137.01 201.075 138.97 203.635C140.93 206.195 145.72 202.455 146.02 208.655C146.32 214.855 140.37 215.825 139.39 220.385C138.41 224.945 142.96 225.925 138.74 229.575C134.52 233.225 133.29 243.225 130.73 231.705Z" fill="#263238"/>
<path d="M132.28 338.685C131.84 338.685 131.43 338.385 131.31 337.935C128.86 328.615 130.61 317.365 132.63 304.345C134.25 293.925 136.08 282.105 136.08 269.145C136.08 261.395 134.86 253.665 133.78 246.835C132.67 239.825 131.72 233.765 132.37 229.495C132.45 228.945 132.96 228.575 133.51 228.655C134.06 228.735 134.43 229.245 134.35 229.795C133.74 233.755 134.67 239.665 135.76 246.515C136.85 253.405 138.08 261.225 138.08 269.135C138.08 282.255 136.23 294.145 134.6 304.635C132.61 317.435 130.89 328.495 133.24 337.405C133.38 337.935 133.06 338.485 132.53 338.625C132.44 338.645 132.36 338.655 132.28 338.655V338.685Z" fill="#263238"/>
<path d="M132.47 314.085C133.67 307.325 133.98 301.445 138.32 296.915C142.66 292.385 142.21 287.165 144.22 283.185C146.23 279.205 149.25 276.325 152.94 279.255C156.63 282.175 156.65 282.095 161.85 281.725C167.05 281.355 168.06 284.845 168.14 289.365C168.22 293.885 177.48 290.695 172.63 297.935C167.78 305.185 157.47 304.265 152.56 308.585C147.65 312.905 153.52 318.995 145.71 319.585C137.9 320.185 133.13 316.535 132.47 314.085Z" fill="#263238"/>
<path d="M111.23 323.795H156.79C160.48 323.795 152.37 361.985 145.88 361.985H122.14C115.65 361.985 107.54 323.795 111.23 323.795Z" fill="#FF8D41"/>
<path opacity="0.3" d="M111.23 323.795H156.79C160.48 323.795 152.37 361.985 145.88 361.985H122.14C115.65 361.985 107.54 323.795 111.23 323.795Z" fill="white"/>
</g>
<defs>
<clipPath id="clip0_3399_3062">
<rect width="500" height="372.61" fill="white" transform="translate(0 0.695007)"/>
</clipPath>
</defs>
</svg>
