<svg width="19" height="20" viewBox="0 0 19 20" fill="none" xmlns="http://www.w3.org/2000/svg">
<path id="Solid" fill-rule="evenodd" clip-rule="evenodd" d="M3.2002 6C3.2002 2.68629 5.88649 0 9.2002 0C12.5139 0 15.2002 2.68629 15.2002 6V7.15032C15.4828 7.21225 15.7541 7.30243 16.0162 7.43598C16.7688 7.81947 17.3807 8.43139 17.7642 9.18404C18.0115 9.66937 18.1101 10.1861 18.156 10.7482C18.2002 11.2894 18.2002 11.9537 18.2002 12.7587V14.2413C18.2002 15.0463 18.2002 15.7106 18.156 16.2518C18.1101 16.8139 18.0115 17.3306 17.7642 17.816C17.3807 18.5686 16.7688 19.1805 16.0162 19.564C15.5308 19.8113 15.0141 19.9099 14.452 19.9558C13.9108 20 13.2465 20 12.4415 20H5.95892C5.15394 20 4.48957 20 3.94837 19.9558C3.38627 19.9099 2.86957 19.8113 2.38424 19.564C1.63159 19.1805 1.01966 18.5686 0.636171 17.816C0.38888 17.3306 0.290316 16.8139 0.244391 16.2518C0.200174 15.7106 0.200184 15.0463 0.200196 14.2413V12.7587C0.200184 11.9537 0.200174 11.2894 0.244391 10.7482C0.290316 10.1861 0.38888 9.66937 0.636171 9.18404C1.01966 8.43139 1.63159 7.81947 2.38424 7.43598C2.64634 7.30243 2.91759 7.21226 3.2002 7.15032V6ZM13.2002 6V7.00163H5.2002V6C5.2002 3.79086 6.99106 2 9.2002 2C11.4093 2 13.2002 3.79086 13.2002 6ZM10.2002 12.5C10.2002 11.9477 9.75248 11.5 9.2002 11.5C8.64791 11.5 8.2002 11.9477 8.2002 12.5V14.5C8.2002 15.0523 8.64791 15.5 9.2002 15.5C9.75248 15.5 10.2002 15.0523 10.2002 14.5V12.5Z" fill="white"/>
</svg>
