<svg width="442" height="570" viewBox="0 0 442 570" fill="none" xmlns="http://www.w3.org/2000/svg">
<g clip-path="url(#clip0_4143_41392)">
<path d="M249.78 52.54C249.913 23.2833 273.483 -0.171725 302.625 3.70926e-05C331.634 0.171799 355.07 23.5886 355.108 52.4446C355.146 81.7586 331.309 105.443 301.976 105.175C272.929 104.927 249.665 81.4341 249.78 52.5209V52.54Z" fill="#0068F5"/>
<path d="M415.968 316.958C419.231 324.706 422.514 332.454 425.758 340.222C431.026 352.798 436.503 365.261 440.339 378.41C447.706 403.621 428.984 421.694 411.598 425.415C393.085 429.385 374.86 425.625 366.195 404.27C364.077 399.041 361.5 393.983 359.554 388.697C356.004 379.154 352.76 369.498 349.401 359.879C348.389 358.199 349.458 357.169 350.679 356.367C356.901 352.321 362.855 347.703 369.459 344.478C381.215 338.752 391.005 330.183 402.017 323.446C406.407 320.755 410.701 317.797 415.968 316.977V316.958Z" fill="#1468FE"/>
<path d="M201.515 297.835C205.275 286.498 210.428 275.735 214.97 264.723C224.474 241.611 234.112 218.576 243.711 195.503C244.131 194.511 244.742 193.575 245.257 192.621C249.952 193.537 253.444 196.076 256.212 200.007C259.742 205.026 260.353 205.045 266.231 202.965C268.559 202.144 270.544 202.354 271.899 204.702C272.624 206.648 272.491 208.805 273.254 210.732C275.105 215.427 273.865 219.531 270.735 223.099C267.815 226.458 266.727 230.027 267.529 234.493C269.323 244.417 268.502 254.131 266.555 264.15C264.532 274.513 267.739 284.914 272.376 294.495C274.666 299.247 276.728 304.018 277.663 309.228C274.17 317.835 270.678 326.443 267.166 335.05C265.716 337.703 263.75 336.767 261.937 335.68C252.719 330.202 242.356 326.862 233.825 320.106C230.81 317.721 227.012 316.69 223.52 315.354C215.294 312.205 210.408 304.438 202.546 300.869C201.42 300.354 200.465 299.285 201.477 297.777L201.515 297.835Z" fill="#2079ED"/>
<path d="M201.515 297.835C201.592 298.14 201.554 298.636 201.744 298.732C211.459 304.152 218.692 313.37 229.78 316.767C236.498 318.828 241.383 324.381 247.7 327.32C253.273 329.897 259.246 331.653 264.094 335.68C265.067 336.481 266.212 335.565 267.186 335.069C262.395 347.779 257.586 360.49 252.796 373.2C249.723 375.07 246.269 374.307 243.044 374.288C235.811 374.25 228.845 375.605 221.841 376.96C219.111 377.494 216.745 378.639 214.646 380.433C212.107 382.609 209.626 384.803 205.809 384.212C204.111 383.945 202.909 385.376 201.916 386.616C199.206 389.937 197.011 393.544 195.046 397.399C191.019 405.281 188.252 413.793 183.137 421.121C182.412 422.171 181.648 423.221 181.267 424.423C176.018 441.16 162.964 451.409 150.101 461.791C148.021 463.47 145.368 464.214 143.155 465.837C137.62 469.864 133.765 474.997 130.444 480.933C127.582 486.028 122.639 489.635 118.631 493.91C113.096 499.788 107.18 505.38 101.035 510.571C96.6454 514.293 91.3971 517.174 86.2061 519.903C85.2328 520.419 84.164 520.839 83.038 520.209C82.5228 519.216 82.0075 518.224 81.4922 517.213C82.122 515.132 84.0114 514.331 85.6717 513.567C96.4354 508.605 104.356 500.075 112.772 492.174C116.818 488.357 120.501 484.177 124.776 480.608C125.883 479.692 126.933 478.623 127.601 477.383C134.07 465.417 145.655 458.47 154.968 449.329C163.461 440.989 172.526 433.049 174.931 420.492C175.083 419.709 175.427 418.965 175.789 418.278C181.648 407.323 183.824 395.281 185.217 383.2C185.828 377.895 186.515 372.57 186.973 367.226C187.278 363.619 186.381 360.738 183.137 358.657C181.419 357.57 179.931 356.043 179.225 353.982C186.076 335.031 193.08 316.137 201.535 297.835H201.515Z" fill="#1F7EEE"/>
<path d="M415.968 316.958C402.895 323.828 391.062 332.588 378.886 340.851C373.276 344.668 366.749 347.378 360.966 351.157C356.92 353.791 352.473 355.928 349.401 359.86C343.847 346.081 338.656 332.149 334.057 318.026C335.316 313.389 339.839 311.709 342.797 308.656C350.832 300.411 357.531 291.499 361.825 280.639C366.348 269.17 372.722 258.788 383.753 252.203C385.146 251.364 386.463 249.761 388.429 251.077C397.608 273.044 406.788 294.991 415.987 316.958H415.968Z" fill="#166AFB"/>
<path d="M388.41 251.077C380.738 254.532 374.936 259.952 370.413 267.032C366.577 273.025 364.058 279.533 361.119 285.926C357.283 294.247 351.71 301.938 344.916 308.408C341.423 311.747 337.683 314.82 334.057 318.026C331.137 311.06 327.072 304.972 320.793 300.564C319.495 298.923 320.125 297.243 320.736 295.602C323.846 287.109 325.888 278.368 327.931 269.57C331.194 255.562 335.679 241.84 339.477 227.947C340.641 223.71 343.656 220.542 346.519 217.355C350.985 212.393 356.386 208.461 361.195 203.843C362.855 202.24 364.821 200.656 367.512 201.457C375.108 217.737 381.94 234.321 388.429 251.077H388.41Z" fill="#196DF7"/>
<path d="M277.682 309.247C277.434 309.056 277.014 308.942 276.938 308.694C274.304 300.621 269.361 293.445 267.395 285.182C265.029 275.219 263.178 265.315 267.014 255.028C269.666 247.928 266.976 240.371 266.04 233.157C265.525 229.168 266.308 226.21 268.674 223.672C272.472 219.588 274.189 215.408 271.708 209.95C270.983 208.328 271.327 206.229 271.174 204.339C273.56 199.702 277.949 199.797 282.243 199.606C284.476 200.732 286.614 201.763 289.343 201.133C291.213 200.694 293.007 201.553 294.324 203.156C295.183 204.206 294.705 206.458 296.499 206.438C298.79 206.4 301.194 206.534 303.351 205.217C304.839 204.301 306.462 202.641 308.122 205.103C308.37 210.217 307.664 215.37 305.851 219.989C302.626 228.271 301.557 236.745 301.328 245.467C301.099 254.436 300.984 263.425 300.278 272.395C300.164 278.75 300.603 285.105 299.897 291.46C299.725 293.025 299.897 294.667 298.866 296.041C293.751 297.548 288.961 299.648 284.304 302.339C281.213 304.133 280.068 307.167 277.682 309.286V309.247Z" fill="#1E75F0"/>
<path d="M298.866 296.003C297.835 289.915 299.362 283.846 298.866 277.758C298.713 275.868 298.847 273.96 298.847 272.07C302.969 250.028 312.225 229.989 323.485 210.847C328.027 203.118 335.165 197.526 342.131 192.068C346.1 188.976 349.707 185.274 354.478 183.27C356.158 182.564 357.723 181.037 359.765 182.373C362.589 188.632 365.815 194.74 367.532 201.457C357.417 207.622 348.906 215.599 342.016 225.122C338.829 229.512 339.058 235.352 337.359 240.428C334.172 249.99 331.138 259.704 329.344 269.589C327.397 280.22 323.485 290.182 320.813 300.545C313.962 296.861 306.671 295.277 298.885 295.984L298.866 296.003Z" fill="#1B70F4"/>
<path d="M282.606 200.503C278.407 200.656 274.514 201.648 271.155 204.32C269.018 203.08 267.147 203.099 265.201 204.931C262.796 207.202 260.182 206.725 258.273 204.263C254.628 199.568 250.563 195.408 245.238 192.621C250.181 179.453 254.952 166.189 262.472 154.185C273.102 137.238 288.503 129.909 308.332 131.646C309.782 133.402 309.038 135.291 308.58 137.104C305.603 148.803 302.569 160.483 301.061 172.506C300.546 176.666 299.076 180.502 296.538 183.9C295.679 185.045 294.763 186.304 294.572 187.678C293.618 194.854 288.446 197.984 282.587 200.484L282.606 200.503Z" fill="#2275EA"/>
<path d="M232.889 420.912C228.232 433.908 222.946 446.657 216.934 459.081C216.686 459.291 216.4 459.577 216.133 459.539C205.407 458.146 196.666 463.413 187.658 467.898C178.803 472.306 170.654 478.242 160.463 479.73C151.321 481.066 144.336 486.143 139.718 494.025C131.187 508.605 118.076 519.159 107.198 531.698C104.029 535.362 99.7163 537.538 95.5941 539.904C94.5253 540.534 93.323 541.183 92.0825 540.152C90.4412 536.641 88.819 533.148 87.1777 529.637C87.4831 528.472 88.3037 527.671 89.3534 527.251C94.4871 525.228 98.6285 521.678 102.56 518.052C111.854 509.483 121.816 501.506 129.068 490.914C131.607 487.212 132.79 482.86 134.851 478.929C137.218 474.444 140.157 471.448 145.653 470.875C157.695 469.615 166.112 461.581 175.215 454.634C183.46 448.355 190.082 440.473 197.849 433.717C206.857 425.893 216.858 420.663 228.9 419.843C230.351 419.747 231.763 419.728 232.889 420.873V420.912Z" fill="#1F88ED"/>
<path d="M92.084 540.171C100.939 536.774 107.39 530.305 113.554 523.415C118.497 517.881 123.249 512.098 128.746 507.155C131.704 504.502 133.593 501.258 135.482 498.147C138.231 493.624 141.933 489.96 144.872 485.666C148.403 480.513 154.414 479.959 159.529 478.872C171.209 476.371 180.732 469.73 191.057 464.558C196.954 461.6 203.386 459.653 209.664 457.516C212.203 456.638 214.416 458.966 216.955 459.081C214.13 468.241 210.218 476.944 206.096 485.57C205.771 486.257 205.504 486.963 205.218 487.67C190.656 487.631 176.877 491.315 163.365 496.391C160.464 497.479 158.021 499.025 155.846 501.201C145.655 511.43 135.883 522.003 126.818 533.263C120.768 540.801 113.669 547.424 106.684 554.103C105.691 555.057 104.661 556.241 102.962 555.554C97.8666 551.45 94.6032 546.068 92.1031 540.133L92.084 540.171Z" fill="#1F90ED"/>
<path d="M102.943 555.592C107.81 552.023 111.665 547.385 116.035 543.282C125.349 534.522 132.219 523.568 141.437 514.674C144.452 511.773 147.239 508.472 149.968 505.246C158.728 494.826 170.579 491.486 183.251 489.559C186.668 489.044 190.103 488.242 193.328 487.002C197.508 485.379 201.344 485.685 205.199 487.708C202.298 496.544 198.424 504.979 194.683 513.453C189.664 513.854 184.626 514.102 179.606 514.731C174.167 515.399 169.568 517.556 164.987 520.781C152.296 529.732 144.701 542.71 136.284 555.115C133.708 558.912 130.635 562.348 128.536 566.47C127.639 568.207 126.131 568.951 124.185 567.901C115.482 566.623 108.669 562.042 102.943 555.611V555.592Z" fill="#1E96ED"/>
<path d="M232.889 420.911C219.244 420.911 207.66 425.95 197.984 435.435C187.602 445.588 176.838 455.302 165.33 464.157C159.127 468.928 151.951 471.276 144.356 472.345C141.417 472.745 139.241 473.719 137.867 476.371C136.856 478.337 135.539 480.169 134.68 482.211C130.271 492.612 123.496 501.048 114.813 508.338C108.648 513.51 103.152 519.484 96.7397 524.465C93.7625 526.793 90.1555 527.518 87.1973 529.637C86.3576 527.785 85.537 525.915 84.6973 524.064C89.0104 520.629 94.0296 518.262 98.4 514.789C105.748 508.949 112.694 502.651 119.183 495.952C124.889 490.055 129.203 482.86 133.535 475.837C137.008 470.226 141.531 466.085 148.287 464.882C151.284 464.348 153.841 462.974 156.379 461.142C169.528 451.6 178.994 439.061 186.686 424.976C194.453 410.797 205.408 399.212 218.385 389.994C226.782 384.04 236.802 383.639 246.21 389.384C242.107 400.014 237.89 410.606 232.889 420.873V420.911Z" fill="#1F83ED"/>
<path d="M2.36681 324.534C-8.3015 294.686 19.2567 271.46 45.2118 274.284C58.0558 275.678 68.476 280.372 73.6479 293.14C74.793 295.926 72.5982 296.881 70.8425 297.663C59.1245 302.797 48.3417 309.82 35.9748 313.77C28.0738 316.309 21.0316 321.347 12.9015 323.656C9.48538 324.63 6.01197 326.137 2.34772 324.515L2.36681 324.534Z" fill="#2907F1"/>
<path d="M282.605 200.503C283.54 199.434 284.323 197.717 285.449 197.43C291.117 196.037 291.212 190.942 293.502 186.953C303.426 169.758 302.11 149.7 308.35 131.646C326.08 131.932 338.485 140.864 347.264 155.654C340.317 161.112 333.466 166.647 327.778 173.537C324.61 177.373 322.053 181.495 319.858 185.865C316.824 191.991 312.511 197.316 309.285 203.309C308.923 203.996 308.369 204.625 307.396 204.301C304.113 206.248 300.659 207.393 296.823 208.061C294.552 208.461 294.037 208.538 294.037 206.362C294.056 201.877 291.098 201.381 287.987 202.488C285.239 203.461 283.941 202.335 282.586 200.484L282.605 200.503Z" fill="#2072ED"/>
<path d="M307.416 204.32C312.836 195.102 317.836 185.598 323.772 176.724C329.23 168.575 336.654 162.124 344.593 156.341C345.28 155.845 346.368 155.883 347.284 155.673C352.189 164.223 356.063 173.269 359.746 182.392C352.055 184.338 346.692 190.064 340.719 194.606C324.344 207.087 316.042 224.893 308.924 243.634C305.336 253.062 301.92 262.509 298.828 272.09C299.477 258.501 300.088 244.894 300.794 231.306C300.851 230.065 301.195 228.767 301.748 227.661C305.374 220.294 306.042 212.24 307.416 204.339V204.32Z" fill="#1D70F1"/>
<path d="M124.184 567.863C125.481 567.863 126.569 567.691 127.371 566.336C134.127 554.943 142.352 544.542 149.585 533.473C153.421 527.595 159.567 524.426 164.567 519.922C173.327 512.06 183.899 512.117 194.682 513.415C190.064 525.572 185.445 537.728 178.193 548.645C165.445 567.863 143.822 572.825 124.184 567.844V567.863Z" fill="#1E9EED"/>
<path d="M2.36719 324.534C13.0546 323.294 22.7496 319.229 31.9674 313.923C36.9485 311.06 42.8266 310.736 47.9031 307.95C55.2125 303.923 62.8082 300.411 70.2703 296.671C71.7971 295.907 73.6292 295.392 73.6483 293.159C77.9614 300.297 80.9386 308.007 83.4387 315.908C69.2016 321.939 55.4606 329 41.3189 335.202C34.0668 338.37 27.5971 343.123 20.0205 345.623C17.0433 346.596 14.1806 348.161 10.8789 347.436C7.61546 339.974 4.31382 332.511 2.38627 324.553L2.36719 324.534Z" fill="#290DF1"/>
<path d="M246.212 389.422C244.819 389.193 243.349 389.174 242.051 388.697C231.039 384.67 222.394 387.952 213.615 395.453C205.714 402.228 198.71 409.499 192.718 417.858C189.13 422.858 185.847 428.106 182.87 433.507C176.896 444.367 168.442 452.821 158.938 460.608C154.777 464.005 150.464 465.779 145.483 466.848C141.075 467.802 138.25 471.219 135.731 474.52C131.799 479.654 128.383 485.169 124.814 490.589C118.173 500.647 108.592 507.67 99.5845 515.266C95.1378 519.026 90.7293 522.957 84.6985 524.083C84.126 522.804 83.5725 521.526 83 520.247C92.3324 515.59 100.806 509.731 108.192 502.327C114.661 495.838 121.131 489.387 127.601 482.898C128.593 481.887 129.452 480.837 130.044 479.463C133.708 471.219 140.445 466.333 147.926 461.581C154.873 457.153 160.98 451.275 167.049 445.454C176.324 436.561 179.778 424.442 185.866 413.907C189.206 408.125 192.718 401.903 194.798 395.224C196.229 390.643 199.569 387.094 202.985 383.754C203.634 383.124 204.913 382.227 205.39 382.456C209.875 384.689 211.764 380.834 214.531 378.887C216.44 377.551 218.386 376.483 220.829 375.891C231.383 373.314 242.032 372.742 252.815 373.2C251.479 378.963 248.025 383.849 246.231 389.422H246.212Z" fill="#2080EE"/>
<path d="M179.204 353.982C181.8 356.043 184.739 357.799 186.895 360.241C189.548 363.257 188.88 367.627 187.831 370.719C186.151 375.7 187.182 380.643 186.437 385.567C185.922 389.021 184.949 392.342 184.414 395.739C182.544 407.762 176.857 418.431 172.983 429.729C171.933 432.801 170.158 435.378 168.002 437.725C157.791 448.794 146.684 458.89 135.062 468.432C131.474 471.371 131.054 476.2 127.657 479.291C121.359 485.036 115.672 491.506 109.126 496.945C105.9 499.636 104.049 503.395 100.595 505.781C94.4495 509.999 87.9225 513.567 81.4528 517.251C80.2505 515.552 79.7925 513.548 79.3535 511.563C90.8806 504.617 101.988 497.078 111.855 487.841C118.897 481.238 125.71 474.501 131.416 466.581C135.348 461.123 139.756 455.798 145.234 451.638C147.39 449.996 149.528 448.279 151.035 446.046C157.868 435.969 164.662 425.931 168.154 414.003C170.158 407.19 168.25 400.472 168.88 393.735C169.07 391.693 166.456 390.472 165.998 388.391C170.406 376.921 174.815 365.452 179.223 353.982H179.204Z" fill="#207BEE"/>
<path d="M165.978 388.372C169.395 390.414 169.891 393.201 170.368 397.266C171.704 408.545 167.696 418.297 164.261 428.412C162.963 432.229 159.471 434.214 157.696 437.649C154.489 443.851 150.329 449.214 144.661 453.718C138.306 458.795 133.458 465.512 128.611 472.097C121.721 481.467 112.79 488.834 103.992 496.239C98.2089 501.105 91.7583 505.189 85.5748 509.56C83.7236 510.876 81.6052 511.468 79.3342 511.525C77.6356 508.854 76.586 505.914 75.6699 502.918C77.9219 500.571 80.8609 499.178 83.6664 497.823C97.7699 490.971 108.61 479.845 119.946 469.558C125.481 464.539 130.176 458.317 134.222 451.771C137.065 447.191 140.729 443.183 143.897 438.813C149.661 430.855 154.127 422.381 155.94 412.667C156.703 408.602 157.161 404.442 154.528 400.72C159.184 397.361 162.982 393.22 165.94 388.315L165.978 388.372Z" fill="#2177EE"/>
<path d="M154.566 400.796C157.009 401.006 157.543 402.552 157.658 404.747C158.154 414.9 154.833 423.965 149.566 432.362C141.417 445.321 132.008 457.382 122.313 469.196C118.744 473.528 114.011 476.906 109.679 480.589C104.526 484.998 99.4686 489.578 93.9722 493.49C88.3613 497.479 82.1397 500.494 75.6891 502.975C73.5326 499.407 72.273 495.456 70.918 491.544C87.159 484.616 102.541 475.589 113.935 462.401C128.076 446.027 141.226 428.316 143.764 405.491C143.802 405.186 144.05 404.938 144.279 404.709C147.715 403.411 151.15 402.113 154.585 400.815L154.566 400.796Z" fill="#216DEE"/>
<path d="M10.8585 347.417C30.8783 340.851 48.646 329.305 68.1124 321.481C73.1698 319.458 77.4638 315.469 83.4182 315.889C85.8992 320.774 87.2161 326.061 88.9528 331.214C83.4564 333.599 78.5898 337.225 72.8072 339.058C69.3338 340.164 66.0512 341.863 62.9595 343.81C50.0011 351.921 35.5731 357.016 21.9848 363.848C20.4771 364.612 18.9694 364.86 17.5381 363.658C15.3052 358.238 13.0532 352.837 10.8203 347.417H10.8585Z" fill="#2813F1"/>
<path d="M17.5762 363.658C21.5076 364.02 24.4085 361.348 27.5383 359.822C39.3136 354.153 51.7567 349.764 62.7304 342.455C69.1619 338.161 77.2347 337.13 83.4754 332.302C84.8877 331.214 87.0061 330.966 88.9527 331.195C90.7466 334.477 91.968 337.951 92.7887 341.577C93.8002 343.829 92.3116 344.783 90.6512 345.565C76.853 352.035 63.5701 359.497 50.001 366.387C42.6534 370.108 34.8668 372.895 27.691 376.998C26.3551 377.761 24.6947 379.383 23.2252 376.998C21.3358 372.532 19.4656 368.085 17.5762 363.619V363.658Z" fill="#2819F1"/>
<path d="M144.279 404.69C144.184 415.034 140.634 424.385 135.978 433.412C130.481 444.08 122.561 453.126 115.653 462.802C111.969 467.974 106.148 471.925 100.595 475.608C92.3502 481.104 84.2774 486.868 75.3076 491.2C73.8763 491.906 72.4831 492.746 70.9182 491.525C69.6967 488.662 68.4753 485.78 67.2539 482.918C70.4601 480.284 74.2389 478.528 77.9031 476.81C96.4152 468.089 110.099 454.272 120.996 437.286C125.538 430.206 129.737 423.03 132.504 414.995C133.649 411.675 134.317 408.335 134.775 404.919L144.279 404.69Z" fill="#2265EE"/>
<path d="M37.5206 411.369C35.7839 407.266 34.0472 403.182 32.3105 399.079C38.1314 393.811 44.9637 390.09 51.9295 386.655C56.9488 384.174 61.7581 381.521 66.0903 377.952C71.2814 373.677 77.3312 370.776 83.4383 368.047C88.9537 365.585 94.1829 362.57 99.4884 359.726C101.626 363.677 102.752 368.009 104.145 372.246C103.878 372.627 103.611 373.143 103.191 373.276C90.6332 377.475 81.358 387.113 70.079 393.525C63.0559 397.533 56.1472 402.209 49.5058 407.037C46.0324 409.575 42.3491 412.209 37.5397 411.35L37.5206 411.369Z" fill="#262BF0"/>
<path d="M108.993 385.567C110.92 388.716 112.848 391.865 114.775 395.014C115.081 395.663 114.909 396.235 114.432 396.731C106.588 404.995 99.8129 414.213 92.0263 422.476C82.2168 432.916 70.3844 440.874 57.1778 446.638C55.2502 447.477 53.2464 448.317 51.8532 445.741C49.8875 442.076 48.3034 438.259 47.082 434.29C56.7007 431.694 64.3345 425.702 71.873 419.633C84.965 409.06 96.8929 397.227 109.012 385.567H108.993Z" fill="#2541EF"/>
<path d="M134.775 404.919C136.015 406.98 135.996 409.136 135.194 411.312C131.225 422.324 125.709 432.439 119.106 442.191C110.251 455.264 99.3344 465.989 85.8607 473.89C79.9635 477.345 74.1618 481.391 67.2531 482.917C65.5355 480.322 64.7531 477.345 63.7988 474.444C67.215 471.314 71.4708 469.425 75.4214 467.23C83.3797 462.783 90.3837 457.077 97.655 451.752C101.415 449.004 104.277 445.473 107.064 441.752C114.698 431.561 121.091 420.683 126.435 409.136C127.217 407.457 127.809 405.51 129.927 404.861C131.549 404.422 133.152 404.537 134.755 404.919H134.775Z" fill="#235DEF"/>
<path d="M37.5195 411.369C48.455 407.648 57.3485 400.491 66.6999 394.079C73.5895 389.346 81.2806 385.834 87.7312 380.414C92.5405 376.368 98.0178 373.677 104.125 372.246C105.155 374.001 105.919 375.853 106.129 377.895C107.14 379.956 105.785 381.177 104.449 382.303C99.9644 386.082 95.5368 389.899 90.4412 392.876C83.5517 396.884 78.3416 403.01 71.9482 407.667C64.1426 413.354 56.4706 419.213 47.6535 423.316C45.9168 424.118 43.8365 425.549 42.3098 422.82C40.3822 419.137 38.7028 415.358 37.5386 411.35L37.5195 411.369Z" fill="#2633F0"/>
<path d="M42.2906 422.839C45.4395 424.48 47.8633 422.228 50.1153 420.912C62.1577 413.869 73.284 405.567 83.7042 396.235C89.6968 390.872 97.2925 387.571 103.151 381.903C104.411 380.681 106.014 379.899 106.129 377.895C107.465 380.299 108.495 382.838 108.972 385.567C106.071 391.578 100.594 395.338 95.9756 399.728C93.0175 402.533 89.9258 405.243 86.9486 408.087C78.1888 416.484 68.8564 424.213 58.4934 430.549C55.1345 432.61 51.7756 435.931 47.0426 434.271C45.1151 430.587 43.4547 426.809 42.2715 422.82L42.2906 422.839Z" fill="#253AF0"/>
<path d="M51.834 445.741C56.5861 447.764 60.174 444.271 63.5138 442.401C73.1133 437.038 82.3503 430.874 90.0987 422.934C95.1561 417.763 99.7173 412.094 104.202 406.407C107.447 402.323 110.634 398.258 114.756 394.995C116.302 396.369 117.867 397.743 119.413 399.117C120.062 401.827 118.401 403.678 116.893 405.453C110.347 413.182 105.462 422.114 98.8013 429.767C93.6675 435.664 87.9421 440.912 81.606 445.321C75.2699 449.729 68.8193 454.081 61.9107 457.592C60.174 458.47 58.151 459.92 56.6051 457.172C54.6394 453.508 53.0554 449.691 51.834 445.722V445.741Z" fill="#244AEF"/>
<path d="M99.4695 359.726C99.4313 361.959 97.6183 362.207 96.0724 363.066C86.2629 368.505 75.4038 372.017 66.4722 379.021C55.9756 387.265 43.3607 391.846 32.2916 399.079C30.7076 395.262 29.1235 391.464 27.5586 387.647C28.0166 386.33 29.0663 385.624 30.2495 385.128C40.6697 380.738 49.8494 374.078 59.888 369.078C69.812 364.135 79.2398 358.276 89.3546 353.734C91.5875 352.722 93.9731 351.501 96.645 352.169C98 354.535 98.9924 357.035 99.4504 359.726H99.4695Z" fill="#2724F0"/>
<path d="M129.928 404.861C125.233 412.705 122.408 421.522 117.275 429.156C109.698 440.416 102.064 451.523 90.2127 459.024C81.5864 464.482 73.5136 470.837 63.7996 474.444C62.4255 471.238 61.0323 468.012 59.6582 464.806C64.2958 461.39 69.9066 459.997 74.9068 457.23C90.0982 448.832 101.186 436.465 110.481 422.19C114.03 416.751 118.496 411.904 120.634 405.587C121.206 403.869 122.447 402.628 124.202 401.98C126.321 402.495 128.325 403.277 129.928 404.842V404.861Z" fill="#2356EF"/>
<path d="M96.6638 352.169C77.7509 360.012 60.193 370.509 42.368 380.471C37.5205 383.181 32.4822 385.261 27.5583 387.666C26.1079 384.135 24.6575 380.586 23.207 377.055C23.7987 377.17 24.562 377.551 24.9819 377.341C41.9291 368.333 59.6014 360.738 76.3768 351.329C80.9189 348.772 85.5374 345.89 90.7284 344.478C92.1789 344.077 92.6751 342.989 92.7896 341.634C95.0797 344.783 94.8698 348.867 96.6638 352.207V352.169Z" fill="#271FF0"/>
<path d="M124.203 401.98C119.585 411.159 113.535 419.423 107.924 427.992C98.0191 443.164 84.3927 453.794 68.6097 461.963C65.8615 463.375 62.6553 463.871 59.659 464.787C58.6475 462.249 57.617 459.711 56.6055 457.172C60.3842 458.871 63.2088 456.084 65.518 454.31C70.8044 450.264 76.9879 447.744 82.1407 443.565C92.9426 434.805 102.561 425.11 109.489 412.801C112.218 407.953 117.104 404.422 119.432 399.117C121.398 399.441 122.085 401.903 124.222 401.98H124.203Z" fill="#2450EF"/>
</g>
<defs>
<clipPath id="clip0_4143_41392">
<rect width="442" height="569.676" fill="white"/>
</clipPath>
</defs>
</svg>
